<svg width="21" height="21" viewBox="0 0 21 21" fill="none" xmlns="http://www.w3.org/2000/svg">
<path fill-rule="evenodd" clip-rule="evenodd" d="M8.5 15C4.91015 15 2 12.0899 2 8.5C2 4.91015 4.91015 2 8.5 2C12.0899 2 15 4.91015 15 8.5C15 12.0899 12.0899 15 8.5 15ZM0 8.5C0 3.80558 3.80558 0 8.5 0C13.1944 0 17 3.80558 17 8.5C17 10.6891 16.1725 12.6849 14.8132 14.1916L19.8894 19.2678C20.2799 19.6583 20.2799 20.2915 19.8894 20.682C19.4988 21.0725 18.8657 21.0725 18.4751 20.682L13.3054 15.5123C11.9385 16.4508 10.2834 17 8.5 17C3.80558 17 0 13.1944 0 8.5Z" fill="black"/>
</svg>
